<?xml version="1.0" encoding="UTF-8"?>
<!DOCTYPE svg PUBLIC "-//W3C//DTD SVG 1.1//EN" "http://www.w3.org/Graphics/SVG/1.1/DTD/svg11.dtd">
<svg xmlns="http://www.w3.org/2000/svg" version="1.1" width="16px" height="16px" style="shape-rendering:geometricPrecision; text-rendering:geometricPrecision; image-rendering:optimizeQuality; fill-rule:evenodd; clip-rule:evenodd" xmlns:xlink="http://www.w3.org/1999/xlink">
<g><path style="opacity:0.99" fill="#904ee2" d="M 0.5,0.5 C 5.16667,0.5 9.83333,0.5 14.5,0.5C 14.5,5.16667 14.5,9.83333 14.5,14.5C 9.83333,14.5 5.16667,14.5 0.5,14.5C 0.5,9.83333 0.5,5.16667 0.5,0.5 Z"/></g>
<g><path style="opacity:1" fill="#f4eefc" d="M 6.5,3.5 C 7.40397,4.20895 7.73731,5.20895 7.5,6.5C 10.9277,7.23535 11.0944,8.90201 8,11.5C 7.51722,10.552 7.35055,9.55198 7.5,8.5C 6.32496,8.71901 5.32496,8.38568 4.5,7.5C 5.17994,6.14011 5.84661,4.80678 6.5,3.5 Z"/></g>
</svg>
